<svg xmlns="http://www.w3.org/2000/svg" width="580" height="350" xmlns:v="https://vecta.io/nano"><g fill="none"><g stroke="#000"><g stroke-width="3.6"><path d="M22.3 300.3H558m-14 9l18-9-18-9"/><path d="M58.6 336.5v-318m9 14l-9-18-9 18"/></g><g stroke-width="1.8" stroke-dasharray="7.25"><path d="M58.6 264H530M58.6 227.8H530M58.6 191.5H530M58.6 155.3H530M58.6 119H530M58.6 82.8H530M58.6 46.5H530"/><path d="M94.8 300.3V46.5M131 300.3V46.5m36.3 253.8V46.5m36.3 253.8V46.5m36.2 253.8V46.5M276 300.3V46.5m36.3 253.8V46.5m36.3 253.8V46.5m36.2 253.8V46.5M421 300.3V46.5m36.3 253.8V46.5m36.3 253.8V46.5m36.2 253.8V46.5"/></g></g><g stroke-width="3.6"><path d="M58.6 300.3c10.8 0 36.3-326.2 108.8-145S276-98.5 348.6 119s108.7-72.5 181.2 72.5" stroke="#c1c1c1"/><path d="M58.6 300.3h36.3v-145H131V119h36.3v36.3h36.3v36.3h36.3v-36.2H276V82.8h36.3V46.5h36.3V119h36.3v72.5h72.5v-36.2h72.5v36.3" stroke="red"/></g></g><text y="510.6" x="600.1" xml:space="preserve" font-size="36" writing-mode="lr-tb" fill="#000" font-family="Sans"><tspan y="336.5" x="528.3">t</tspan></text><text xml:space="preserve" x="78.3" y="244.6" font-size="36.8" writing-mode="lr-tb" fill="#000" font-family="Arial"><tspan x="6.5" y="70.5">f(t)</tspan></text></svg>