<svg xmlns="http://www.w3.org/2000/svg" width="585" height="330" xmlns:v="https://vecta.io/nano"><g fill="none" stroke="#000" stroke-width="3.543"><path d="M44.403 288.346h523.573m-13.755 8.858l17.717-8.858-17.717-8.858"/><path d="M79.836 323.779V12.804m8.858 13.755L79.836 8.842l-8.858 17.717"/><path d="M115.269 288.346V40.314m35.433 248.032V40.314m35.433 248.032V40.314m35.433 248.032V40.314m35.433 248.032V40.314m35.433 248.032V40.314m35.434 248.032V40.314m35.433 248.032V40.314m35.433 248.032V40.314m35.433 248.032V40.314M469.6 288.346V40.314m35.433 248.032V40.314m35.433 248.032V40.314" stroke-dasharray="7.0866142"/></g><text y="323.779" x="540.466" font-size="42.52" fill="#000" font-family="sans">t</text><g fill="none" stroke-width="3.543"><path d="M79.836 288.346c10.587 0 35.433-318.898 106.299-141.732s106.299-248.031 177.165-35.433S469.6 40.314 540.466 182.047" stroke="#c1c1c1"/><path d="M115.269 288.346v-144.44m8.858 13.755l-8.858-17.717-8.858 17.717m44.291 130.685V101.387m8.859 13.755l-8.858-17.717-8.858 17.717m44.29 173.204V154.537m8.859 13.754l-8.858-17.717-8.858 17.717m44.29 120.055v-89.295m8.859 13.755l-8.858-17.717-8.858 17.717m44.29 75.54l.208-127.725m8.837 13.769l-8.829-17.731-8.887 17.702m44.104 113.985V87.214m8.859 13.754l-8.858-17.717-8.858 17.717m44.291 187.378V58.867m8.858 13.755l-8.858-17.717-8.858 17.717m44.291 215.724V119.103m8.858 13.755l-8.858-17.717-8.858 17.717m44.291 155.488l.206-96.669m8.829 13.774l-8.819-17.736-8.898 17.698m44.115 82.933l-.206-91.974m8.891 13.735l-8.901-17.697-8.816 17.736m44.465 78.2l.205-124.395m8.838 13.769l-8.83-17.731-8.887 17.702m44.107 110.655l-.213-139.454m8.88 13.741l-8.883-17.703-8.833 17.73m44.482 125.686V189.97m8.859 13.754l-8.858-17.717-8.858 17.717" stroke="red"/></g><text x="5.085" y="73.261" font-size="42.52" fill="#000" font-family="sans">f(t)</text></svg>